<svg width="7" height="12" viewBox="0 0 7 12" fill="none" xmlns="http://www.w3.org/2000/svg">
<path d="M0.940606 11.0455C1.03586 11.1467 1.16391 11.2 1.29418 11.2C1.42446 11.2 1.5525 11.1467 1.64776 11.0455L6.05939 6.35805C6.24687 6.15885 6.24687 5.84123 6.05939 5.64203L1.64776 0.954569C1.45379 0.748477 1.13457 0.748477 0.940606 0.954569C0.753131 1.15376 0.753131 1.47139 0.940606 1.67058L5.0153 6.00004L0.940606 10.3295C0.753282 10.5285 0.75298 10.8465 0.940606 11.0455ZM0.940606 11.0455L1.08625 10.9084L0.940781 11.0457C0.940723 11.0456 0.940664 11.0456 0.940606 11.0455Z" fill="white" stroke="white" stroke-width="0.4"/>
        </svg>
